<?xml version="1.0" encoding="UTF-8" standalone="no"?>
<!-- Created with Inkscape (http://www.inkscape.org/) -->

<svg
   xmlns:dc="http://purl.org/dc/elements/1.1/"
   xmlns:cc="http://creativecommons.org/ns#"
   xmlns:rdf="http://www.w3.org/1999/02/22-rdf-syntax-ns#"
   xmlns:svg="http://www.w3.org/2000/svg"
   xmlns="http://www.w3.org/2000/svg"
   xmlns:inkscape="http://www.inkscape.org/namespaces/inkscape"
   version="1.1"
   width="360"
   height="540"
   id="svg20298">
  <defs
     id="defs20300">
    <inkscape:path-effect
       effect="spiro"
       id="path-effect17935-89" />
    <inkscape:path-effect
       effect="spiro"
       id="path-effect17939-8" />
    <inkscape:path-effect
       effect="spiro"
       id="path-effect17935-8-7" />
    <inkscape:path-effect
       effect="spiro"
       id="path-effect17939-6-0" />
    <inkscape:path-effect
       effect="spiro"
       id="path-effect17935-9-8-2-5-09-4-0" />
    <inkscape:path-effect
       effect="spiro"
       id="path-effect17935-9-8-2-5-09-4-1-8" />
  </defs>
  <metadata
     id="metadata20303">
    <rdf:RDF>
      <cc:Work
         rdf:about="">
        <dc:format>image/svg+xml</dc:format>
        <dc:type
           rdf:resource="http://purl.org/dc/dcmitype/StillImage" />
        <dc:title></dc:title>
      </cc:Work>
    </rdf:RDF>
  </metadata>
  <g
     transform="translate(-151.42857,-248.08929)"
     id="layer1">
    <g
       transform="translate(151.42857,-264.27289)"
       id="g2996">
      <rect
         width="359"
         height="539"
         rx="29.944447"
         ry="29.944447"
         x="0.5"
         y="512.86218"
         id="rect6472-0"
         style="fill:#ffffff;stroke:#000000;stroke-width:0.99999976" />
      <path
         d="m 30,542.36208 c -5.54,0 -10,4.46 -10,10 l 0,5 c 0,3.0036 1.323,5.67 3.4063,7.5 -2.0833,1.83 -3.4063,4.4964 -3.4063,7.5 l 0,10 c 0,5.54 4.46,10 10,10 5.54,0 10,-4.46 10,-10 l 0,-10 c 0,-3.0036 -1.323,-5.67 -3.4062,-7.5 2.0832,-1.83 3.4062,-4.4964 3.4062,-7.5 l 0,-5 c 0,-5.54 -4.46,-10 -10,-10 z m 0,5 c 2.77,0 5,2.23 5,5 l 0,5 c 0,2.77 -2.23,5 -5,5 -2.77,0 -5,-2.23 -5,-5 l 0,-5 c 0,-2.77 2.23,-5 5,-5 z m 0,20 c 2.77,0 5,2.23 5,5 l 0,10 c 0,2.77 -2.23,5 -5,5 -2.77,0 -5,-2.23 -5,-5 l 0,-10 c 0,-2.77 2.23,-5 5,-5 z"
         id="rect3163-5-18-0-7-9"
         style="fill:#ff5555;fill-opacity:1;stroke:none" />
      <path
         d="m 330,1022.3621 c -5.54,0 -10,-4.46 -10,-10 l 0,-5 c 0,-3.0036 1.323,-5.67 3.4063,-7.5 C 321.323,998.0321 320,995.3657 320,992.36208 l 0,-10 c 0,-5.54 4.46,-10 10,-10 5.54,0 10,4.46 10,10 l 0,10 c 0,3.00362 -1.323,5.67002 -3.4062,7.50002 2.0832,1.83 3.4062,4.4964 3.4062,7.5 l 0,5 c 0,5.54 -4.46,10 -10,10 z m 0,-5 c 2.77,0 5,-2.23 5,-5 l 0,-5 c 0,-2.77 -2.23,-5 -5,-5 -2.77,0 -5,2.23 -5,5 l 0,5 c 0,2.77 2.23,5 5,5 z m 0,-20 c 2.77,0 5,-2.23 5,-5.00002 l 0,-10 c 0,-2.77 -2.23,-5 -5,-5 -2.77,0 -5,2.23 -5,5 l 0,10 c 0,2.77002 2.23,5.00002 5,5.00002 z"
         id="rect3163-5-18-0-7-4-7"
         style="fill:#ff5555;fill-opacity:1;stroke:none" />
      <path
         d="m 90,557.36218 c 0,0 6,15 13,25 7,10 17,20 17,20 0,0 -10,10 -17,20 -7,10 -13,25 -13,25 0,0 -6,-15 -13,-25 -7,-10 -17,-20 -17,-20 0,0 10,-10 17,-20 7,-10 13,-25 13,-25"
         id="path3204-24-1-3"
         style="fill:#ff5555;stroke:none" />
      <path
         d="m 270,557.36218 c 0,0 6,15 13,25 7,10 17,20 17,20 0,0 -10,10 -17,20 -7,10 -13,25 -13,25 0,0 -6,-15 -13,-25 -7,-10 -17,-20 -17,-20 0,0 10,-10 17,-20 7,-10 13,-25 13,-25"
         id="path3204-24-7-7"
         style="fill:#ff5555;stroke:none" />
      <path
         d="m 180,647.36218 c 0,0 6,15 13,25 7,10 17,20 17,20 0,0 -10,10 -17,20 -7,10 -13,25 -13,25 0,0 -6,-15 -13,-25 -7,-10 -17,-20 -17,-20 0,0 10,-10 17,-20 7,-10 13,-25 13,-25"
         id="path3204-24-4-2"
         style="fill:#ff5555;stroke:none" />
      <path
         d="m 90,737.36218 c 0,0 6,15 13,25 7,10 17,20 17,20 0,0 -10,10 -17,20 -7,10 -13,25 -13,25 0,0 -6,-15 -13,-25 -7,-10 -17,-20 -17,-20 0,0 10,-10 17,-20 7,-10 13,-25 13,-25"
         id="path3204-24-6"
         style="fill:#ff5555;stroke:none" />
      <path
         d="m 270,737.36218 c 0,0 6,15 13,25 7,10 17,20 17,20 0,0 -10,10 -17,20 -7,10 -13,25 -13,25 0,0 -6,-15 -13,-25 -7,-10 -17,-20 -17,-20 0,0 10,-10 17,-20 7,-10 13,-25 13,-25"
         id="path3204-24-0-0"
         style="fill:#ff5555;stroke:none" />
      <path
         d="m 180,827.36218 c 0,0 6,15 13,25 7,10 17,20 17,20 0,0 -10,10 -17,20 -7,10 -13,25 -13,25 0,0 -6,-15 -13,-25 -7,-10 -17,-20 -17,-20 0,0 10,-10 17,-20 7,-10 13,-25 13,-25"
         id="path3204-24-9-1"
         style="fill:#ff5555;stroke:none" />
      <path
         d="m 90,917.36218 c 0,0 6,15 13,25 7,10 17,20 17,20 0,0 -10,10 -17,20 -7,10 -13,25.00002 -13,25.00002 0,0 -6,-15.00002 -13,-25.00002 -7,-10 -17,-20 -17,-20 0,0 10,-10 17,-20 7,-10 13,-25 13,-25"
         id="path3204-24-48-6"
         style="fill:#ff5555;stroke:none" />
      <path
         d="m 270,917.36218 c 0,0 6,15 13,25 7,10 17,20 17,20 0,0 -10,10 -17,20 -7,10 -13,25.00002 -13,25.00002 0,0 -6,-15.00002 -13,-25.00002 -7,-10 -17,-20 -17,-20 0,0 10,-10 17,-20 7,-10 13,-25 13,-25"
         id="path3204-24-8-5"
         style="fill:#ff5555;stroke:none" />
      <path
         d="m 30,602.36218 c 0,0 3,7.5 6.5,12.5 3.5,5 8.5,10 8.5,10 0,0 -5,5 -8.5,10 -3.5,5 -6.5,12.5 -6.5,12.5 0,0 -3,-7.5 -6.5,-12.5 -3.5,-5 -8.5,-10 -8.5,-10 0,0 5,-5 8.5,-10 3.5,-5 6.5,-12.5 6.5,-12.5"
         id="path3204-24-1-2"
         style="fill:#ff5555;stroke:none" />
      <path
         d="m 330,917.36218 c 0,0 3,7.5 6.5,12.5 3.5,5 8.5,10 8.5,10 0,0 -5,5 -8.5,10 -3.5,5 -6.5,12.5 -6.5,12.5 0,0 -3,-7.5 -6.5,-12.5 -3.5,-5 -8.5,-10 -8.5,-10 0,0 5,-5 8.5,-10 3.5,-5 6.5,-12.5 6.5,-12.5"
         id="path3204-24-1-4"
         style="fill:#ff5555;stroke:none" />
    </g>
  </g>
</svg>
